<?xml version="1.0" encoding="utf-8"?>
<svg xmlns="http://www.w3.org/2000/svg"
	xmlns:xlink="http://www.w3.org/1999/xlink"
	width="22px" height="26px" viewBox="0 0 22 26">
<path fillRule="evenodd" d="M 10.71-0.01C 4.8-0.01 0.01 4.77 0.01 10.68 0.01 13.31 2.54 17.58 2.54 17.58 2.54 17.58 7.68 26.15 10.71 26.01 13.74 26.15 18.88 17.58 18.88 17.58 18.88 17.58 21.08 13.31 21.08 10.68 21.08 4.77 16.62-0.01 10.71-0.01ZM 10.49 15.53C 7.82 15.53 5.64 13.36 5.64 10.68 5.64 8 7.82 5.83 10.49 5.83 13.17 5.83 15.35 8 15.35 10.68 15.35 13.36 13.17 15.53 10.49 15.53Z" fill="rgb(255,233,0)"/></svg>