<?xml version="1.0" encoding="utf-8"?>
<svg xmlns="http://www.w3.org/2000/svg"
	xmlns:xlink="http://www.w3.org/1999/xlink"
	width="16px" height="13px" viewBox="0 0 16 13">
<path fillRule="evenodd" d="M 16 1.82C 15.44 2.06 14.84 2.23 14.21 2.3 14.85 1.92 15.35 1.33 15.58 0.62 14.98 0.97 14.31 1.22 13.6 1.36 13.03 0.77 12.22 0.4 11.32 0.4 9.6 0.4 8.21 1.76 8.21 3.43 8.21 3.67 8.23 3.9 8.29 4.12 5.69 3.99 3.39 2.79 1.86 0.96 1.59 1.4 1.43 1.92 1.43 2.48 1.43 3.53 1.98 4.46 2.82 5 2.31 4.98 1.83 4.85 1.41 4.62 1.41 4.63 1.41 4.65 1.41 4.66 1.41 6.13 2.48 7.35 3.91 7.63 3.65 7.7 3.37 7.73 3.09 7.73 2.89 7.73 2.69 7.71 2.5 7.68 2.9 8.88 4.05 9.76 5.42 9.78 4.35 10.59 3 11.08 1.54 11.08 1.29 11.08 1.04 11.06 0.8 11.03 2.18 11.89 3.82 12.4 5.58 12.4 11.32 12.4 14.45 7.78 14.45 3.78 14.45 3.65 14.45 3.52 14.45 3.39 15.06 2.96 15.58 2.43 16 1.82Z" fill="rgb(255,255,255)"/></svg>