<?xml version="1.0" encoding="utf-8"?>
<svg xmlns="http://www.w3.org/2000/svg"
	xmlns:xlink="http://www.w3.org/1999/xlink"
	width="20px" height="20px" viewBox="0 0 20 20">
<path fillRule="evenodd" d="M 12.82 14.27C 11.49 15.28 9.86 15.83 8.19 15.83 3.95 15.83 0.51 12.38 0.51 8.15 0.51 3.91 3.95 0.47 8.19 0.47 12.42 0.47 15.87 3.91 15.87 8.15 15.87 9.82 15.32 11.45 14.31 12.78 14.31 12.78 19.57 18.04 19.57 18.04 19.57 18.04 18.08 19.53 18.08 19.53 18.08 19.53 12.82 14.27 12.82 14.27ZM 8.19 2C 4.8 2 2.05 4.76 2.05 8.15 2.05 11.53 4.8 14.29 8.19 14.29 11.58 14.29 14.33 11.53 14.33 8.15 14.33 4.76 11.58 2 8.19 2 8.19 2 8.19 2 8.19 2Z" fill="rgb(145,145,145)"/></svg>