<?xml version="1.0" encoding="utf-8"?>
<svg xmlns="http://www.w3.org/2000/svg"
	xmlns:xlink="http://www.w3.org/1999/xlink"
	width="16px" height="16px" viewBox="0 0 16 16">
<path fillRule="evenodd" d="M 12.42 0.8C 12.42 0.8 3.58 0.8 3.58 0.8 2.05 0.8 0.8 2.05 0.8 3.58 0.8 3.58 0.8 6.52 0.8 6.52 0.8 6.52 0.8 12.42 0.8 12.42 0.8 13.95 2.05 15.2 3.58 15.2 3.58 15.2 12.42 15.2 12.42 15.2 13.95 15.2 15.2 13.95 15.2 12.42 15.2 12.42 15.2 6.52 15.2 6.52 15.2 6.52 15.2 3.58 15.2 3.58 15.2 2.05 13.95 0.8 12.42 0.8ZM 13.29 2.41C 13.29 2.41 13.61 2.41 13.61 2.41 13.61 2.41 13.61 2.72 13.61 2.72 13.61 2.72 13.61 4.8 13.61 4.8 13.61 4.8 11.2 4.81 11.2 4.81 11.2 4.81 11.19 2.41 11.19 2.41 11.19 2.41 13.29 2.41 13.29 2.41ZM 8 5.59C 10 5.59 10.41 7.47 10.41 8 10.41 9.33 9.33 10.41 8 10.41 6.67 10.41 5.59 9.33 5.59 8 5.59 7.47 6 5.59 8 5.59ZM 13.62 12.24C 13.62 13 13 13.62 12.24 13.62 12.24 13.62 3.73 13.62 3.73 13.62 2.97 13.62 2.35 13 2.35 12.24 2.35 12.24 2.35 6.4 2.35 6.4 2.35 6.4 4.35 6.4 4.35 6.4 4.17 6.85 4.06 7.48 4.06 8 4.06 10.17 5.83 11.94 8 11.94 10.17 11.94 11.94 10.17 11.94 8 11.94 7.48 11.83 6.85 11.65 6.4 11.65 6.4 13.62 6.4 13.62 6.4 13.62 6.4 13.62 12.24 13.62 12.24Z" fill="rgb(255,255,255)"/></svg>