<?xml version="1.0" encoding="utf-8"?>
<svg xmlns="http://www.w3.org/2000/svg"
	xmlns:xlink="http://www.w3.org/1999/xlink"
	width="13px" height="12px" viewBox="0 0 13 12">
<path fillRule="evenodd" d="M 10.01 11.79C 10.01 11.79 10.01 7.43 10.01 7.43 10.01 6.54 9.75 5.64 8.7 5.64 7.65 5.64 6.81 6.54 6.81 7.45 6.81 7.45 6.81 11.79 6.81 11.79 6.81 11.79 4.4 11.79 4.4 11.79 4.4 11.79 4.4 3.77 4.4 3.77 4.4 3.77 6.81 3.77 6.81 3.77 6.81 3.77 6.81 4.88 6.81 4.88 7.55 3.95 8.59 3.52 9.75 3.52 10.91 3.52 12.41 4.1 12.41 7.25 12.41 7.25 12.41 11.79 12.41 11.79 12.41 11.79 10.01 11.79 10.01 11.79ZM 0.41 3.8C 0.41 3.8 2.81 3.8 2.81 3.8 2.81 3.8 2.81 11.79 2.81 11.79 2.81 11.79 0.41 11.79 0.41 11.79 0.41 11.79 0.41 3.8 0.41 3.8ZM 1.6 3C 0.94 3 0.4 2.46 0.4 1.8 0.4 1.14 0.94 0.6 1.6 0.6 2.26 0.6 2.8 1.14 2.8 1.8 2.8 2.46 2.26 3 1.6 3Z" fill="rgb(255,255,255)"/></svg>