<?xml version="1.0" encoding="utf-8"?>
<svg xmlns="http://www.w3.org/2000/svg"
	xmlns:xlink="http://www.w3.org/1999/xlink"
	width="15px" height="13px" viewBox="0 0 15 13">
<path fillRule="evenodd" d="M 0.8 3.6C 2 2.64 3.7 0.55 5.03 0.55 6.35 0.55 6.68 2.11 6.86 3.53 7.04 4.95 7.56 8.06 8.26 8.06 8.96 8.06 10.56 5.31 10.47 4.25 10.38 3.19 9.23 3.35 8.59 3.65 9.17 1.53 10.53 0.4 12.25 0.4 13.98 0.4 14.4 1.62 14.4 3.12 14.4 5.4 9.77 12.4 6.98 12.4 5.25 12.4 4.82 9.85 4.47 8.59 4.12 7.33 3.43 4.02 2.62 3.81 2.31 3.76 1.42 4.46 1.42 4.46 1.42 4.46 0.8 3.6 0.8 3.6Z" fill="rgb(255,255,255)"/></svg>